<?xml version="1.0" encoding="utf-8"?>
<svg version="1.1" xmlns:xlink="http://www.w3.org/1999/xlink" width="95px" height="95px" xmlns="http://www.w3.org/2000/svg">
  <g transform="matrix(1 0 0 1 -213 -364 )">
    <path d="M 260.5 364  C 287.1 364  308 384.9  308 411.5  C 308 438.1  287.1 459  260.5 459  C 233.9 459  213 438.1  213 411.5  C 213 384.9  233.9 364  260.5 364  Z " fill-rule="nonzero" fill="#ffffff" stroke="none" />
    <path d="M 260.5 364.5  C 286.82 364.5  307.5 385.18  307.5 411.5  C 307.5 437.82  286.82 458.5  260.5 458.5  C 234.18 458.5  213.5 437.82  213.5 411.5  C 213.5 385.18  234.18 364.5  260.5 364.5  Z " stroke-width="1" stroke="#797979" fill="none" />
  </g>
</svg>