<?xml version="1.0" encoding="utf-8"?>
<svg version="1.1" xmlns:xlink="http://www.w3.org/1999/xlink" width="110px" height="110px" xmlns="http://www.w3.org/2000/svg">
  <g transform="matrix(1 0 0 1 -708 -364 )">
    <path d="M 763 364  C 793.8 364  818 388.2  818 419  C 818 449.8  793.8 474  763 474  C 732.2 474  708 449.8  708 419  C 708 388.2  732.2 364  763 364  Z " fill-rule="nonzero" fill="#ffffff" stroke="none" />
    <path d="M 763 364.5  C 793.52 364.5  817.5 388.48  817.5 419  C 817.5 449.52  793.52 473.5  763 473.5  C 732.48 473.5  708.5 449.52  708.5 419  C 708.5 388.48  732.48 364.5  763 364.5  Z " stroke-width="1" stroke="#797979" fill="none" />
  </g>
</svg>