<?xml version="1.0" encoding="utf-8"?>
<svg version="1.1" xmlns:xlink="http://www.w3.org/1999/xlink" width="60px" height="52px" xmlns="http://www.w3.org/2000/svg">
  <g transform="matrix(1 0 0 1 -958 -213 )">
    <path d="M 958 213  L 1018 213  L 1018 265  L 958 265  L 958 213  " fill-rule="nonzero" fill="#cccccc" stroke="none" />
    <path d="M 962 217  L 1014 217  L 1014 261  L 962 261  L 962 217  " fill-rule="nonzero" fill="#ffffff" stroke="none" />
    <path d="M 993.1 228.6  C 990.916 228.6  989.2 226.884  989.2 224.7  C 989.2 222.516  990.916 220.8  993.1 220.8  C 995.284 220.8  997 222.516  997 224.7  C 997 226.884  995.284 228.6  993.1 228.6  " fill-rule="nonzero" fill="#cccccc" stroke="none" />
    <path d="M 964 260  L 964 237.45  L 976.25 227.2  L 993.4 238.68  L 1003.2 233.35  L 1013 238.68  L 1013 260  L 964 260  " fill-rule="nonzero" fill="#169bd5" stroke="none" />
  </g>
</svg>